<mxfile host="app.diagrams.net" modified="2023-12-11T20:51:02.820Z" agent="Mozilla/5.0 (Macintosh; Intel Mac OS X 10_15_7) AppleWebKit/605.1.15 (KHTML, like Gecko) Version/17.0 Safari/605.1.15" etag="dDaUBTSzy4t4l2uEq20Z" version="22.1.7" type="device">
  <diagram name="Страница — 1" id="XucWiYZLfeWfpZD1bpKK">
    <mxGraphModel dx="795" dy="539" grid="1" gridSize="10" guides="1" tooltips="1" connect="1" arrows="1" fold="1" page="1" pageScale="1" pageWidth="827" pageHeight="1169" math="0" shadow="0">
      <root>
        <mxCell id="0" />
        <mxCell id="1" parent="0" />
        <mxCell id="9mdY0G-vuCFdXhZRlTzO-1" value="&lt;font style=&quot;font-size: 15px;&quot;&gt;CLIENT&lt;/font&gt;" style="html=1;dropTarget=0;whiteSpace=wrap;" vertex="1" parent="1">
          <mxGeometry x="10" y="50" width="120" height="90" as="geometry" />
        </mxCell>
        <mxCell id="9mdY0G-vuCFdXhZRlTzO-2" value="" style="shape=module;jettyWidth=8;jettyHeight=4;" vertex="1" parent="9mdY0G-vuCFdXhZRlTzO-1">
          <mxGeometry x="1" width="20" height="20" relative="1" as="geometry">
            <mxPoint x="-27" y="7" as="offset" />
          </mxGeometry>
        </mxCell>
        <mxCell id="9mdY0G-vuCFdXhZRlTzO-3" value="&lt;font style=&quot;font-size: 15px;&quot;&gt;WEB SERVER&lt;/font&gt;" style="html=1;dropTarget=0;whiteSpace=wrap;" vertex="1" parent="1">
          <mxGeometry x="210" y="50" width="120" height="90" as="geometry" />
        </mxCell>
        <mxCell id="9mdY0G-vuCFdXhZRlTzO-4" value="" style="shape=module;jettyWidth=8;jettyHeight=4;" vertex="1" parent="9mdY0G-vuCFdXhZRlTzO-3">
          <mxGeometry x="1" width="20" height="20" relative="1" as="geometry">
            <mxPoint x="-27" y="7" as="offset" />
          </mxGeometry>
        </mxCell>
        <mxCell id="9mdY0G-vuCFdXhZRlTzO-5" value="&lt;font style=&quot;font-size: 15px;&quot;&gt;APPLICATION SERVER&lt;/font&gt;" style="html=1;dropTarget=0;whiteSpace=wrap;" vertex="1" parent="1">
          <mxGeometry x="410" y="50" width="120" height="90" as="geometry" />
        </mxCell>
        <mxCell id="9mdY0G-vuCFdXhZRlTzO-6" value="" style="shape=module;jettyWidth=8;jettyHeight=4;" vertex="1" parent="9mdY0G-vuCFdXhZRlTzO-5">
          <mxGeometry x="1" width="20" height="20" relative="1" as="geometry">
            <mxPoint x="-27" y="7" as="offset" />
          </mxGeometry>
        </mxCell>
        <mxCell id="9mdY0G-vuCFdXhZRlTzO-7" value="&lt;font style=&quot;font-size: 15px;&quot;&gt;DATABASE&lt;/font&gt;" style="html=1;dropTarget=0;whiteSpace=wrap;" vertex="1" parent="1">
          <mxGeometry x="610" y="50" width="120" height="90" as="geometry" />
        </mxCell>
        <mxCell id="9mdY0G-vuCFdXhZRlTzO-8" value="" style="shape=module;jettyWidth=8;jettyHeight=4;" vertex="1" parent="9mdY0G-vuCFdXhZRlTzO-7">
          <mxGeometry x="1" width="20" height="20" relative="1" as="geometry">
            <mxPoint x="-27" y="7" as="offset" />
          </mxGeometry>
        </mxCell>
        <mxCell id="9mdY0G-vuCFdXhZRlTzO-17" value="" style="ellipse;whiteSpace=wrap;html=1;align=center;aspect=fixed;fillColor=none;strokeColor=none;resizable=0;perimeter=centerPerimeter;rotatable=0;allowArrows=0;points=[];outlineConnect=1;" vertex="1" parent="1">
          <mxGeometry x="270" y="190" width="10" height="10" as="geometry" />
        </mxCell>
        <mxCell id="9mdY0G-vuCFdXhZRlTzO-27" style="edgeStyle=orthogonalEdgeStyle;rounded=0;orthogonalLoop=1;jettySize=auto;html=1;exitX=1;exitY=0.5;exitDx=0;exitDy=0;exitPerimeter=0;entryX=0;entryY=0.75;entryDx=0;entryDy=0;endArrow=none;endFill=0;" edge="1" parent="1" source="9mdY0G-vuCFdXhZRlTzO-24" target="9mdY0G-vuCFdXhZRlTzO-3">
          <mxGeometry relative="1" as="geometry" />
        </mxCell>
        <mxCell id="9mdY0G-vuCFdXhZRlTzO-24" value="" style="shape=providedRequiredInterface;html=1;verticalLabelPosition=bottom;sketch=0;" vertex="1" parent="1">
          <mxGeometry x="160" y="108" width="20" height="20" as="geometry" />
        </mxCell>
        <mxCell id="9mdY0G-vuCFdXhZRlTzO-26" style="edgeStyle=orthogonalEdgeStyle;rounded=0;orthogonalLoop=1;jettySize=auto;html=1;exitX=1;exitY=0.75;exitDx=0;exitDy=0;entryX=0;entryY=0.5;entryDx=0;entryDy=0;entryPerimeter=0;endArrow=none;endFill=0;" edge="1" parent="1" source="9mdY0G-vuCFdXhZRlTzO-1" target="9mdY0G-vuCFdXhZRlTzO-24">
          <mxGeometry relative="1" as="geometry" />
        </mxCell>
        <mxCell id="9mdY0G-vuCFdXhZRlTzO-30" style="edgeStyle=orthogonalEdgeStyle;rounded=0;orthogonalLoop=1;jettySize=auto;html=1;exitX=0;exitY=0.5;exitDx=0;exitDy=0;exitPerimeter=0;entryX=0;entryY=0.25;entryDx=0;entryDy=0;endArrow=none;endFill=0;" edge="1" parent="1" source="9mdY0G-vuCFdXhZRlTzO-28" target="9mdY0G-vuCFdXhZRlTzO-3">
          <mxGeometry relative="1" as="geometry" />
        </mxCell>
        <mxCell id="9mdY0G-vuCFdXhZRlTzO-28" value="" style="shape=providedRequiredInterface;html=1;verticalLabelPosition=bottom;sketch=0;direction=west;" vertex="1" parent="1">
          <mxGeometry x="160" y="63" width="20" height="20" as="geometry" />
        </mxCell>
        <mxCell id="9mdY0G-vuCFdXhZRlTzO-29" style="edgeStyle=orthogonalEdgeStyle;rounded=0;orthogonalLoop=1;jettySize=auto;html=1;exitX=1;exitY=0.25;exitDx=0;exitDy=0;entryX=1;entryY=0.5;entryDx=0;entryDy=0;entryPerimeter=0;endArrow=none;endFill=0;" edge="1" parent="1" source="9mdY0G-vuCFdXhZRlTzO-1" target="9mdY0G-vuCFdXhZRlTzO-28">
          <mxGeometry relative="1" as="geometry" />
        </mxCell>
        <mxCell id="9mdY0G-vuCFdXhZRlTzO-31" value="HTTP POST request" style="text;html=1;strokeColor=none;fillColor=none;align=center;verticalAlign=middle;whiteSpace=wrap;rounded=0;" vertex="1" parent="1">
          <mxGeometry x="130" y="10" width="80" height="40" as="geometry" />
        </mxCell>
        <mxCell id="9mdY0G-vuCFdXhZRlTzO-32" value="JSON" style="text;html=1;strokeColor=none;fillColor=none;align=center;verticalAlign=middle;whiteSpace=wrap;rounded=0;" vertex="1" parent="1">
          <mxGeometry x="130" y="140" width="80" height="30" as="geometry" />
        </mxCell>
        <mxCell id="9mdY0G-vuCFdXhZRlTzO-39" style="edgeStyle=orthogonalEdgeStyle;rounded=0;orthogonalLoop=1;jettySize=auto;html=1;exitX=1;exitY=0.5;exitDx=0;exitDy=0;exitPerimeter=0;entryX=0;entryY=0.75;entryDx=0;entryDy=0;endArrow=none;endFill=0;" edge="1" parent="1" source="9mdY0G-vuCFdXhZRlTzO-40">
          <mxGeometry relative="1" as="geometry">
            <mxPoint x="410" y="117.5" as="targetPoint" />
          </mxGeometry>
        </mxCell>
        <mxCell id="9mdY0G-vuCFdXhZRlTzO-40" value="" style="shape=providedRequiredInterface;html=1;verticalLabelPosition=bottom;sketch=0;" vertex="1" parent="1">
          <mxGeometry x="360" y="107.5" width="20" height="20" as="geometry" />
        </mxCell>
        <mxCell id="9mdY0G-vuCFdXhZRlTzO-41" style="edgeStyle=orthogonalEdgeStyle;rounded=0;orthogonalLoop=1;jettySize=auto;html=1;exitX=1;exitY=0.75;exitDx=0;exitDy=0;entryX=0;entryY=0.5;entryDx=0;entryDy=0;entryPerimeter=0;endArrow=none;endFill=0;" edge="1" parent="1" target="9mdY0G-vuCFdXhZRlTzO-40">
          <mxGeometry relative="1" as="geometry">
            <mxPoint x="330" y="117.5" as="sourcePoint" />
          </mxGeometry>
        </mxCell>
        <mxCell id="9mdY0G-vuCFdXhZRlTzO-42" style="edgeStyle=orthogonalEdgeStyle;rounded=0;orthogonalLoop=1;jettySize=auto;html=1;exitX=0;exitY=0.5;exitDx=0;exitDy=0;exitPerimeter=0;entryX=0;entryY=0.25;entryDx=0;entryDy=0;endArrow=none;endFill=0;" edge="1" parent="1" source="9mdY0G-vuCFdXhZRlTzO-43">
          <mxGeometry relative="1" as="geometry">
            <mxPoint x="410" y="72.5" as="targetPoint" />
          </mxGeometry>
        </mxCell>
        <mxCell id="9mdY0G-vuCFdXhZRlTzO-43" value="" style="shape=providedRequiredInterface;html=1;verticalLabelPosition=bottom;sketch=0;direction=west;" vertex="1" parent="1">
          <mxGeometry x="360" y="62.5" width="20" height="20" as="geometry" />
        </mxCell>
        <mxCell id="9mdY0G-vuCFdXhZRlTzO-44" style="edgeStyle=orthogonalEdgeStyle;rounded=0;orthogonalLoop=1;jettySize=auto;html=1;exitX=1;exitY=0.25;exitDx=0;exitDy=0;entryX=1;entryY=0.5;entryDx=0;entryDy=0;entryPerimeter=0;endArrow=none;endFill=0;" edge="1" parent="1" target="9mdY0G-vuCFdXhZRlTzO-43">
          <mxGeometry relative="1" as="geometry">
            <mxPoint x="330" y="72.5" as="sourcePoint" />
          </mxGeometry>
        </mxCell>
        <mxCell id="9mdY0G-vuCFdXhZRlTzO-45" value="HTTP POST request" style="text;html=1;strokeColor=none;fillColor=none;align=center;verticalAlign=middle;whiteSpace=wrap;rounded=0;" vertex="1" parent="1">
          <mxGeometry x="330" y="10" width="80" height="40" as="geometry" />
        </mxCell>
        <mxCell id="9mdY0G-vuCFdXhZRlTzO-46" value="JSON" style="text;html=1;strokeColor=none;fillColor=none;align=center;verticalAlign=middle;whiteSpace=wrap;rounded=0;" vertex="1" parent="1">
          <mxGeometry x="330" y="140" width="80" height="30" as="geometry" />
        </mxCell>
        <mxCell id="9mdY0G-vuCFdXhZRlTzO-47" style="edgeStyle=orthogonalEdgeStyle;rounded=0;orthogonalLoop=1;jettySize=auto;html=1;exitX=1;exitY=0.5;exitDx=0;exitDy=0;exitPerimeter=0;entryX=0;entryY=0.75;entryDx=0;entryDy=0;endArrow=none;endFill=0;" edge="1" parent="1" source="9mdY0G-vuCFdXhZRlTzO-48">
          <mxGeometry relative="1" as="geometry">
            <mxPoint x="610" y="117.5" as="targetPoint" />
          </mxGeometry>
        </mxCell>
        <mxCell id="9mdY0G-vuCFdXhZRlTzO-48" value="" style="shape=providedRequiredInterface;html=1;verticalLabelPosition=bottom;sketch=0;" vertex="1" parent="1">
          <mxGeometry x="560" y="107.5" width="20" height="20" as="geometry" />
        </mxCell>
        <mxCell id="9mdY0G-vuCFdXhZRlTzO-49" style="edgeStyle=orthogonalEdgeStyle;rounded=0;orthogonalLoop=1;jettySize=auto;html=1;exitX=1;exitY=0.75;exitDx=0;exitDy=0;entryX=0;entryY=0.5;entryDx=0;entryDy=0;entryPerimeter=0;endArrow=none;endFill=0;" edge="1" parent="1" target="9mdY0G-vuCFdXhZRlTzO-48">
          <mxGeometry relative="1" as="geometry">
            <mxPoint x="530" y="117.5" as="sourcePoint" />
          </mxGeometry>
        </mxCell>
        <mxCell id="9mdY0G-vuCFdXhZRlTzO-50" style="edgeStyle=orthogonalEdgeStyle;rounded=0;orthogonalLoop=1;jettySize=auto;html=1;exitX=0;exitY=0.5;exitDx=0;exitDy=0;exitPerimeter=0;entryX=0;entryY=0.25;entryDx=0;entryDy=0;endArrow=none;endFill=0;" edge="1" parent="1" source="9mdY0G-vuCFdXhZRlTzO-51">
          <mxGeometry relative="1" as="geometry">
            <mxPoint x="610" y="72.5" as="targetPoint" />
          </mxGeometry>
        </mxCell>
        <mxCell id="9mdY0G-vuCFdXhZRlTzO-51" value="" style="shape=providedRequiredInterface;html=1;verticalLabelPosition=bottom;sketch=0;direction=west;" vertex="1" parent="1">
          <mxGeometry x="560" y="62.5" width="20" height="20" as="geometry" />
        </mxCell>
        <mxCell id="9mdY0G-vuCFdXhZRlTzO-52" style="edgeStyle=orthogonalEdgeStyle;rounded=0;orthogonalLoop=1;jettySize=auto;html=1;exitX=1;exitY=0.25;exitDx=0;exitDy=0;entryX=1;entryY=0.5;entryDx=0;entryDy=0;entryPerimeter=0;endArrow=none;endFill=0;" edge="1" parent="1" target="9mdY0G-vuCFdXhZRlTzO-51">
          <mxGeometry relative="1" as="geometry">
            <mxPoint x="530" y="72.5" as="sourcePoint" />
          </mxGeometry>
        </mxCell>
        <mxCell id="9mdY0G-vuCFdXhZRlTzO-53" value="PostgreSQL request" style="text;html=1;strokeColor=none;fillColor=none;align=center;verticalAlign=middle;whiteSpace=wrap;rounded=0;" vertex="1" parent="1">
          <mxGeometry x="530" y="10" width="80" height="40" as="geometry" />
        </mxCell>
        <mxCell id="9mdY0G-vuCFdXhZRlTzO-54" value="PostgreSQL response" style="text;html=1;strokeColor=none;fillColor=none;align=center;verticalAlign=middle;whiteSpace=wrap;rounded=0;" vertex="1" parent="1">
          <mxGeometry x="530" y="140" width="80" height="30" as="geometry" />
        </mxCell>
      </root>
    </mxGraphModel>
  </diagram>
</mxfile>
